<svg width="36" height="51" viewBox="0 0 36 51" fill="none" xmlns="http://www.w3.org/2000/svg">
<path d="M35.9559 0.0239997C35.7639 1.848 35.6199 3.624 35.5239 5.352C35.4759 7.032 35.4519 8.328 35.4519 9.24C35.4519 10.392 35.4759 11.472 35.5239 12.48C35.5719 13.488 35.6199 14.376 35.6679 15.144H34.0119C33.6759 11.784 33.2199 9.144 32.6439 7.224C32.0679 5.256 31.0599 3.84 29.6199 2.976C28.1799 2.112 25.9479 1.68 22.9239 1.68H18.3879C16.7559 1.68 15.5079 1.824 14.6439 2.112C13.8279 2.352 13.2759 2.904 12.9879 3.768C12.6999 4.584 12.5559 5.88 12.5559 7.656V43.368C12.5559 45.096 12.7239 46.392 13.0599 47.256C13.4439 48.12 14.1639 48.696 15.2199 48.984C16.2759 49.272 17.8119 49.464 19.8279 49.56V51C18.5799 50.904 16.9959 50.856 15.0759 50.856C13.1559 50.808 11.2119 50.784 9.24391 50.784C7.37191 50.784 5.61991 50.808 3.98791 50.856C2.35591 50.856 1.03591 50.904 0.0279065 51V49.56C1.65991 49.464 2.88391 49.272 3.69991 48.984C4.56391 48.696 5.13991 48.12 5.42791 47.256C5.71591 46.392 5.85991 45.096 5.85991 43.368V7.656C5.85991 5.88 5.71591 4.584 5.42791 3.768C5.13991 2.904 4.56391 2.328 3.69991 2.04C2.88391 1.704 1.65991 1.512 0.0279065 1.464V0.0239997C1.80391 0.0719991 3.67591 0.119998 5.64391 0.167998C7.61191 0.167998 9.55591 0.191998 11.4759 0.239997C13.3959 0.239997 15.1719 0.239997 16.8039 0.239997C18.4839 0.239997 19.8519 0.239997 20.9079 0.239997C23.1159 0.239997 25.6119 0.239997 28.3959 0.239997C31.2279 0.191998 33.7479 0.119998 35.9559 0.0239997ZM24.7959 25.368C24.7959 25.368 24.7959 25.608 24.7959 26.088C24.7959 26.568 24.7959 26.808 24.7959 26.808H10.3959C10.3959 26.808 10.3959 26.568 10.3959 26.088C10.3959 25.608 10.3959 25.368 10.3959 25.368H24.7959ZM26.1639 15.864C25.9719 18.6 25.8759 20.688 25.8759 22.128C25.9239 23.568 25.9479 24.888 25.9479 26.088C25.9479 27.288 25.9719 28.608 26.0199 30.048C26.0679 31.488 26.1879 33.576 26.3799 36.312H24.7239C24.5319 34.776 24.2919 33.288 24.0039 31.848C23.7639 30.36 23.1879 29.16 22.2759 28.248C21.4119 27.288 19.9239 26.808 17.8119 26.808V25.368C19.3959 25.368 20.5959 25.056 21.4119 24.432C22.2759 23.76 22.8999 22.92 23.2839 21.912C23.6679 20.904 23.9319 19.872 24.0759 18.816C24.2199 17.712 24.3639 16.728 24.5079 15.864H26.1639Z" fill="white"/>
</svg>
